<svg xmlns="http://www.w3.org/2000/svg" aria-hidden="true" style="position:absolute;width:0;height:0;overflow:hidden"><defs><symbol id="icon-tictok" viewBox="0 0 27 32"><path d="M19.81 10.278v11.055a9.907 9.907 0 0 1-17.676 6.139 9.9 9.9 0 0 1-.582-11.465 9.905 9.905 0 0 1 10.638-4.314v4.82a5.337 5.337 0 0 0-6.278 1.282 5.337 5.337 0 0 0-.516 6.386 5.335 5.335 0 0 0 8.771.354 5.334 5.334 0 0 0 1.07-3.203V.761h4.571a7.62 7.62 0 0 0 7.619 7.62v4.571c-2.77.004-5.459-.94-7.619-2.674z"/></symbol><symbol id="icon-instagram" viewBox="0 0 32 32"><path d="M17.567.763a119.69 119.69 0 0 1 3.336.034l.296.011c.341.012.678.027 1.085.046 1.621.076 2.728.332 3.698.709a7.41 7.41 0 0 1 2.7 1.758 7.472 7.472 0 0 1 1.757 2.699c.376.971.632 2.079.709 3.7.018.405.034.744.046 1.085l.009.296c.027 1.111.039 2.223.035 3.334l.001 1.137v1.996c.004 1.112-.008 2.224-.035 3.336l-.009.296c-.012.341-.027.678-.046 1.085-.076 1.621-.335 2.727-.71 3.698a7.428 7.428 0 0 1-1.757 2.7 7.484 7.484 0 0 1-2.7 1.757c-.971.376-2.077.632-3.698.709-.407.018-.744.034-1.085.046l-.296.009c-1.112.027-2.224.039-3.336.035l-3.131.002c-1.112.004-2.224-.008-3.336-.035l-.296-.009a78.694 78.694 0 0 1-1.085-.046c-1.621-.076-2.728-.335-3.7-.71a7.459 7.459 0 0 1-2.699-1.757 7.452 7.452 0 0 1-1.758-2.7c-.376-.971-.632-2.077-.709-3.698-.017-.362-.032-.723-.046-1.085l-.008-.296a119.695 119.695 0 0 1-.038-3.336v-3.133c-.004-1.111.007-2.223.034-3.334l.011-.296c.012-.341.027-.68.046-1.085.076-1.623.332-2.728.709-3.7a7.421 7.421 0 0 1 1.762-2.697 7.459 7.459 0 0 1 2.697-1.76c.972-.376 2.077-.632 3.7-.709l1.085-.046.296-.008C12.212.773 13.324.76 14.435.763l3.133.002zM16 8.382a7.619 7.619 0 1 0 0 15.238 7.623 7.623 0 0 0 7.619-7.619A7.616 7.616 0 0 0 16 8.384zm0 3.048a4.586 4.586 0 0 1 3.287 1.308 4.573 4.573 0 0 1-1.51 7.509 4.587 4.587 0 0 1-1.775.324 4.572 4.572 0 0 1 0-9.142l-.002.002zm8-5.333a1.902 1.902 0 0 0-1.828 1.904A1.905 1.905 0 0 0 24 9.905 1.908 1.908 0 0 0 25.905 8 1.906 1.906 0 0 0 24 6.095v.003z"/></symbol><symbol id="icon-facebook" viewBox="0 0 18 32"><path d="M13.329 5.313h2.921V.225C15.746.156 14.013 0 11.994 0 7.782 0 4.897 2.649 4.897 7.519V12H.249v5.688h4.648V32h5.699V17.689h4.46l.708-5.688h-5.169V8.082c.001-1.644.444-2.769 2.735-2.769z"/></symbol><symbol id="icon-youtube" viewBox="0 0 37 32"><path d="M19.101 1.778c.949.005 3.324.028 5.849.13l.896.039c2.54.119 5.079.325 6.34.676 1.68.473 2.999 1.849 3.445 3.595.711 2.773.8 8.181.811 9.492l.002.27v.309c-.012 1.31-.101 6.72-.812 9.492-.452 1.751-1.773 3.129-3.445 3.595-1.261.35-3.799.557-6.34.675l-.896.041c-2.524.099-4.9.124-5.849.128l-.418.002h-.453c-2.009-.012-10.411-.103-13.084-.846-1.678-.473-2.999-1.849-3.445-3.595-.711-2.773-.8-8.181-.811-9.492v-.58c.011-1.31.1-6.72.811-9.492.452-1.751 1.772-3.129 3.447-3.593 2.672-.745 11.076-.836 13.084-.846h.869zm-3.992 8v12.444L25.776 16 15.109 9.778z"/></symbol><symbol id="icon-cat" viewBox="0 0 32 32"><path d="M2.555 10.693S2.081 1.881 3.996 1.44s5.218 2.721 5.218 2.721l-6.659 6.532zM20.642 4.376s3.535-3.52 6.04-2.934c2.504.586.591 7.545.591 7.545l-6.631-4.611z" style="fill:var(--color1, #000)"/><path fill="#f07f2e" stroke="#000" stroke-miterlimit="10" stroke-width=".533" d="M27.558 26.809c-2.653 2.097-4.428 2.782-7.444 3.598-2.013.545-7.083.517-11.808-1.384-3.31-1.448-4.607-3.022-5.232-3.88-.544-.746-1.65-2.402-1.713-4.214-.092-2.637-.015-5.21 1.196-10.232 1.211-5.024 6.659-6.532 6.659-6.532 5.953-1.406 10.897-.301 12.612 0s6.589 3.387 7.008 9.571c.064.925 1.1 4.214 1.2 6.977.03.847.055 1.975-.367 3.133-.487 1.335-1.573 2.513-2.11 2.963z" style="fill:var(--color2, #f07f2e);stroke:var(--color1, #000)"/><path d="M11.149 14.33c.042-.079.09-.155.142-.23l.075-.107.044-.057a3.146 3.146 0 0 1 .351-.363c.016-.014.095-.077.033-.029s.028-.019.048-.033a1.56 1.56 0 0 1 .157-.095c.026-.014.055-.026.083-.04.055-.028-.098.031.009-.002a2.22 2.22 0 0 1 .178-.047c.079-.02-.101.003-.019.003.036 0 .072-.005.109-.003.033 0 .065.006.097.006.059 0-.095-.026-.039-.005.012.005.03.005.044.009.034.009.069.017.101.028l.044.015c.092.026-.053-.034-.008-.003.076.051.165.09.243.141l.047.034c-.075-.057 0 .001.014.015.042.039.086.076.126.116.209.208.337.389.495.645a.48.48 0 0 0 .639.168c.213-.124.301-.422.168-.636-.5-.802-1.259-1.613-2.296-1.432-.623.109-1.111.599-1.468 1.088-.081.11-.159.225-.223.344a.474.474 0 0 0 .168.636c.21.119.52.053.639-.169zM24.801 13.665a3.18 3.18 0 0 1 .208-.322l.041-.056c.034-.047-.078.095-.008.012a3.25 3.25 0 0 1 .217-.239c.041-.04.083-.079.126-.115.015-.014.093-.076.03-.026s.023-.017.044-.03c.048-.033.098-.064.15-.092l.078-.039c.055-.028-.103.033.005 0 .056-.017.114-.031.171-.045.078-.019-.104.005-.023.003.034 0 .069-.005.104-.003.031 0 .062.006.093.006.059 0-.098-.026-.044-.005.012.005.028.005.041.008l.097.026c.014.005.028.011.042.014.09.026-.056-.036-.013-.006.073.05.157.085.232.137a.84.84 0 0 1 .044.033c-.079-.06-.006-.003.009.011.04.037.083.073.121.112.204.203.313.362.472.614a.479.479 0 0 0 .639.168c.213-.124.301-.422.168-.636-.485-.776-1.218-1.556-2.222-1.381-.603.105-1.072.579-1.418 1.05a2.81 2.81 0 0 0-.213.33.474.474 0 0 0 .168.636c.213.124.523.057.642-.166z" style="fill:var(--color1, #000)"/><path fill="none" stroke="#000" stroke-miterlimit="10" stroke-width=".533" d="m14.163 18.362-4.834-.155M14.243 20.022l-4.197.621M26.898 17.646l4.835-.155M26.82 19.3l4.197.619M19.982 19.514s2.339 3.224 4.317-.059M22.16 17.105v3.641" style="stroke:var(--color1, #000)"/><path d="M22.118 17.269c.979 0 1.773-.557 1.773-1.244s-.794-1.244-1.773-1.244c-.979 0-1.773.557-1.773 1.244s.794 1.244 1.773 1.244z" style="fill:var(--color1, #000)"/><path stroke="#000" stroke-miterlimit="10" stroke-width=".533" d="M6.587 15.508c1.572-1.621-3.453-5.024-3.823-5.169-.016-.006-1.429 6.361-1.356 10.195.017.895.187 1.827.187 1.827.294.261.487 1.1 2.69.028 1.232-.6 1.475-1.823.354-2.059-2.158-.451.006-.932-.347-1.786-.893-2.153.643-1.331 2.297-3.036zM27.935 21.832c.182-1.907 1.972-1.369 1.972-1.369.595 3.481-1.487 5.845-2.989 6.672-.365 0-.714-2.128.106-2.399s.729-.998.911-2.904z" style="fill:var(--color1, #000);stroke:var(--color1, #000)"/></symbol></defs></svg>