<svg aria-hidden="true" style="position: absolute; width: 0; height: 0; overflow: hidden;" version="1.1" xmlns="http://www.w3.org/2000/svg" xmlns:xlink="http://www.w3.org/1999/xlink">
<defs>
<symbol id="icon-tictok" viewBox="0 0 27 32">
<path d="M19.81 10.278v11.055c-0 2.057-0.641 4.063-1.834 5.739s-2.877 2.94-4.821 3.615c-1.943 0.675-4.049 0.728-6.024 0.152s-3.721-1.753-4.997-3.367c-1.276-1.614-2.017-3.585-2.121-5.64s0.434-4.091 1.539-5.825c1.106-1.735 2.724-3.082 4.63-3.855s4.006-0.933 6.008-0.459v4.82c-1.044-0.495-2.221-0.638-3.353-0.407s-2.159 0.824-2.925 1.689c-0.766 0.865-1.231 1.956-1.324 3.107s0.191 2.303 0.808 3.279c0.618 0.977 1.536 1.726 2.616 2.136s2.265 0.458 3.375 0.136c1.11-0.321 2.086-0.994 2.78-1.918s1.070-2.048 1.070-3.203v-20.571h4.571c0 2.021 0.803 3.959 2.232 5.388s3.367 2.232 5.387 2.232v4.571c-2.77 0.004-5.459-0.94-7.619-2.674z"></path>
</symbol>
<symbol id="icon-instagram" viewBox="0 0 32 32">
<path d="M17.567 0.763c1.112-0.004 2.224 0.007 3.336 0.034l0.296 0.011c0.341 0.012 0.678 0.027 1.085 0.046 1.621 0.076 2.728 0.332 3.698 0.709 1.006 0.387 1.853 0.911 2.7 1.758 0.775 0.761 1.374 1.682 1.757 2.699 0.376 0.971 0.632 2.079 0.709 3.7 0.018 0.405 0.034 0.744 0.046 1.085l0.009 0.296c0.027 1.111 0.039 2.223 0.035 3.334l0.001 1.137v1.996c0.004 1.112-0.008 2.224-0.035 3.336l-0.009 0.296c-0.012 0.341-0.027 0.678-0.046 1.085-0.076 1.621-0.335 2.727-0.71 3.698-0.381 1.018-0.981 1.939-1.757 2.7-0.762 0.775-1.683 1.374-2.7 1.757-0.971 0.376-2.077 0.632-3.698 0.709-0.407 0.018-0.744 0.034-1.085 0.046l-0.296 0.009c-1.112 0.027-2.224 0.039-3.336 0.035l-3.131 0.002c-1.112 0.004-2.224-0.008-3.336-0.035l-0.296-0.009c-0.362-0.013-0.723-0.028-1.085-0.046-1.621-0.076-2.728-0.335-3.7-0.71-1.017-0.382-1.938-0.982-2.699-1.757-0.776-0.761-1.376-1.683-1.758-2.7-0.376-0.971-0.632-2.077-0.709-3.698-0.017-0.362-0.032-0.723-0.046-1.085l-0.008-0.296c-0.028-1.112-0.041-2.224-0.038-3.336v-3.133c-0.004-1.111 0.007-2.223 0.034-3.334l0.011-0.296c0.012-0.341 0.027-0.68 0.046-1.085 0.076-1.623 0.332-2.728 0.709-3.7 0.383-1.017 0.984-1.938 1.762-2.697 0.76-0.776 1.681-1.377 2.697-1.76 0.972-0.376 2.077-0.632 3.7-0.709l1.085-0.046 0.296-0.008c1.111-0.028 2.223-0.041 3.334-0.038l3.133 0.002zM16 8.382c-1.009-0.014-2.012 0.172-2.949 0.549s-1.789 0.935-2.508 1.644c-0.719 0.709-1.29 1.553-1.679 2.485s-0.59 1.931-0.59 2.941c0 1.010 0.201 2.009 0.59 2.941s0.961 1.776 1.679 2.485c0.719 0.709 1.572 1.268 2.508 1.644s1.939 0.563 2.949 0.549c2.021 0 3.959-0.803 5.387-2.232s2.232-3.367 2.232-5.387c0-2.021-0.803-3.959-2.232-5.387s-3.367-2.23-5.387-2.23zM16 11.43c0.607-0.011 1.211 0.099 1.775 0.323s1.078 0.559 1.512 0.985c0.433 0.425 0.778 0.933 1.013 1.493s0.356 1.161 0.356 1.769c0 0.607-0.121 1.209-0.356 1.769s-0.579 1.068-1.012 1.493c-0.433 0.426-0.947 0.761-1.511 0.985s-1.168 0.335-1.775 0.324c-1.212 0-2.375-0.482-3.232-1.339s-1.339-2.020-1.339-3.232c0-1.212 0.482-2.375 1.339-3.232s2.020-1.339 3.232-1.339l-0.002 0.002zM24 6.097c-0.492 0.020-0.957 0.229-1.297 0.584s-0.531 0.828-0.531 1.32 0.19 0.965 0.531 1.32c0.341 0.355 0.806 0.564 1.297 0.584 0.505 0 0.989-0.201 1.347-0.558s0.558-0.842 0.558-1.347c0-0.505-0.201-0.99-0.558-1.347s-0.842-0.558-1.347-0.558v0.003z"></path>
</symbol>
<symbol id="icon-facebook" viewBox="0 0 18 32">
<path d="M13.329 5.313h2.921v-5.088c-0.504-0.069-2.237-0.225-4.256-0.225-4.212 0-7.097 2.649-7.097 7.519v4.481h-4.648v5.688h4.648v14.312h5.699v-14.311h4.46l0.708-5.688h-5.169v-3.919c0.001-1.644 0.444-2.769 2.735-2.769z"></path>
</symbol>
<symbol id="icon-youtube" viewBox="0 0 37 32">
<path d="M19.101 1.778c0.949 0.005 3.324 0.028 5.849 0.13l0.896 0.039c2.54 0.119 5.079 0.325 6.34 0.676 1.68 0.473 2.999 1.849 3.445 3.595 0.711 2.773 0.8 8.181 0.811 9.492l0.002 0.27v0.309c-0.012 1.31-0.101 6.72-0.812 9.492-0.452 1.751-1.773 3.129-3.445 3.595-1.261 0.35-3.799 0.557-6.34 0.675l-0.896 0.041c-2.524 0.099-4.9 0.124-5.849 0.128l-0.418 0.002h-0.453c-2.009-0.012-10.411-0.103-13.084-0.846-1.678-0.473-2.999-1.849-3.445-3.595-0.711-2.773-0.8-8.181-0.811-9.492v-0.58c0.011-1.31 0.1-6.72 0.811-9.492 0.452-1.751 1.772-3.129 3.447-3.593 2.672-0.745 11.076-0.836 13.084-0.846h0.869zM15.109 9.778v12.444l10.667-6.222-10.667-6.222z"></path>
</symbol>
<symbol id="icon-cat" viewBox="0 0 32 32">
<path fill="#000" style="fill: var(--color1, #000)" d="M2.555 10.693c0 0-0.474-8.812 1.441-9.253s5.218 2.721 5.218 2.721l-6.659 6.532z"></path>
<path fill="#000" style="fill: var(--color1, #000)" d="M20.642 4.376c0 0 3.535-3.52 6.040-2.934 2.504 0.586 0.591 7.545 0.591 7.545l-6.631-4.611z"></path>
<path fill="#f07f2e" stroke="#000" stroke-width="0.5333" stroke-miterlimit="10" stroke-linecap="butt" stroke-linejoin="miter" style="fill: var(--color2, #f07f2e); stroke: var(--color1, #000)" d="M27.558 26.809c-2.653 2.097-4.428 2.782-7.444 3.598-2.013 0.545-7.083 0.517-11.808-1.384-3.31-1.448-4.607-3.022-5.232-3.88-0.544-0.746-1.65-2.402-1.713-4.214-0.092-2.637-0.015-5.21 1.196-10.232 1.211-5.024 6.659-6.532 6.659-6.532 5.953-1.406 10.897-0.301 12.612 0s6.589 3.387 7.008 9.571c0.064 0.925 1.1 4.214 1.2 6.977 0.030 0.847 0.055 1.975-0.367 3.133-0.487 1.335-1.573 2.513-2.11 2.963z"></path>
<path fill="#000" style="fill: var(--color1, #000)" d="M11.149 14.33c0.042-0.079 0.090-0.155 0.142-0.23 0.025-0.036 0.050-0.071 0.075-0.107 0.014-0.019 0.030-0.039 0.044-0.057 0.034-0.048-0.076 0.092-0.006 0.008 0.072-0.087 0.145-0.171 0.226-0.25 0.042-0.042 0.086-0.082 0.131-0.121 0.016-0.014 0.095-0.077 0.033-0.029s0.028-0.019 0.048-0.033c0.050-0.034 0.103-0.067 0.157-0.095 0.026-0.014 0.055-0.026 0.083-0.040 0.055-0.028-0.098 0.031 0.009-0.002 0.059-0.019 0.118-0.033 0.178-0.047 0.079-0.020-0.101 0.003-0.019 0.003 0.036 0 0.072-0.005 0.109-0.003 0.033 0 0.065 0.006 0.097 0.006 0.059 0-0.095-0.026-0.039-0.005 0.012 0.005 0.030 0.005 0.044 0.009 0.034 0.009 0.069 0.017 0.101 0.028 0.014 0.005 0.030 0.011 0.044 0.015 0.092 0.026-0.053-0.034-0.008-0.003 0.076 0.051 0.165 0.090 0.243 0.141 0.016 0.011 0.031 0.022 0.047 0.034-0.075-0.057 0 0.001 0.014 0.015 0.042 0.039 0.086 0.076 0.126 0.116 0.209 0.208 0.337 0.389 0.495 0.645 0.133 0.213 0.418 0.296 0.639 0.168 0.213-0.124 0.301-0.422 0.168-0.636-0.5-0.802-1.259-1.613-2.296-1.432-0.623 0.109-1.111 0.599-1.468 1.088-0.081 0.11-0.159 0.225-0.223 0.344-0.118 0.222-0.056 0.506 0.168 0.636 0.21 0.119 0.52 0.053 0.639-0.169z"></path>
<path fill="#000" style="fill: var(--color1, #000)" d="M24.801 13.665c0.041-0.076 0.087-0.149 0.136-0.22 0.023-0.034 0.047-0.068 0.072-0.102 0.014-0.019 0.028-0.037 0.041-0.056 0.034-0.047-0.078 0.095-0.008 0.012 0.069-0.082 0.139-0.163 0.217-0.239 0.041-0.040 0.083-0.079 0.126-0.115 0.015-0.014 0.093-0.076 0.030-0.026s0.023-0.017 0.044-0.030c0.048-0.033 0.098-0.064 0.15-0.092 0.026-0.014 0.053-0.026 0.078-0.039 0.055-0.028-0.103 0.033 0.005 0 0.056-0.017 0.114-0.031 0.171-0.045 0.078-0.019-0.104 0.005-0.023 0.003 0.034 0 0.069-0.005 0.104-0.003 0.031 0 0.062 0.006 0.093 0.006 0.059 0-0.098-0.026-0.044-0.005 0.012 0.005 0.028 0.005 0.041 0.008 0.033 0.009 0.065 0.017 0.097 0.026 0.014 0.005 0.028 0.011 0.042 0.014 0.090 0.026-0.056-0.036-0.013-0.006 0.073 0.050 0.157 0.085 0.232 0.137 0.016 0.011 0.030 0.022 0.044 0.033-0.079-0.060-0.006-0.003 0.009 0.011 0.040 0.037 0.083 0.073 0.121 0.112 0.204 0.203 0.313 0.362 0.472 0.614 0.132 0.213 0.417 0.296 0.639 0.168 0.213-0.124 0.301-0.422 0.168-0.636-0.485-0.776-1.218-1.556-2.222-1.381-0.603 0.105-1.072 0.579-1.418 1.050-0.078 0.105-0.151 0.216-0.213 0.33-0.118 0.222-0.056 0.506 0.168 0.636 0.213 0.124 0.523 0.057 0.642-0.166z"></path>
<path fill="none" stroke="#000" stroke-width="0.5333" stroke-miterlimit="10" stroke-linecap="butt" stroke-linejoin="miter" style="stroke: var(--color1, #000)" d="M14.163 18.362l-4.834-0.155"></path>
<path fill="none" stroke="#000" stroke-width="0.5333" stroke-miterlimit="10" stroke-linecap="butt" stroke-linejoin="miter" style="stroke: var(--color1, #000)" d="M14.243 20.022l-4.197 0.621"></path>
<path fill="none" stroke="#000" stroke-width="0.5333" stroke-miterlimit="10" stroke-linecap="butt" stroke-linejoin="miter" style="stroke: var(--color1, #000)" d="M26.898 17.646l4.835-0.155"></path>
<path fill="none" stroke="#000" stroke-width="0.5333" stroke-miterlimit="10" stroke-linecap="butt" stroke-linejoin="miter" style="stroke: var(--color1, #000)" d="M26.82 19.3l4.197 0.619"></path>
<path fill="none" stroke="#000" stroke-width="0.5333" stroke-miterlimit="10" stroke-linecap="butt" stroke-linejoin="miter" style="stroke: var(--color1, #000)" d="M19.982 19.514c0 0 2.339 3.224 4.317-0.059"></path>
<path fill="none" stroke="#000" stroke-width="0.5333" stroke-miterlimit="10" stroke-linecap="butt" stroke-linejoin="miter" style="stroke: var(--color1, #000)" d="M22.16 17.105v3.641"></path>
<path fill="#000" style="fill: var(--color1, #000)" d="M22.118 17.269c0.979 0 1.773-0.557 1.773-1.244s-0.794-1.244-1.773-1.244c-0.979 0-1.773 0.557-1.773 1.244s0.794 1.244 1.773 1.244z"></path>
<path fill="#000" stroke="#000" stroke-width="0.5333" stroke-miterlimit="10" stroke-linecap="butt" stroke-linejoin="miter" style="fill: var(--color1, #000); stroke: var(--color1, #000)" d="M6.587 15.508c1.572-1.621-3.453-5.024-3.823-5.169-0.016-0.006-1.429 6.361-1.356 10.195 0.017 0.895 0.187 1.827 0.187 1.827 0.294 0.261 0.487 1.1 2.69 0.028 1.232-0.6 1.475-1.823 0.354-2.059-2.158-0.451 0.006-0.932-0.347-1.786-0.893-2.153 0.643-1.331 2.297-3.036z"></path>
<path fill="#000" stroke="#000" stroke-width="0.5333" stroke-miterlimit="10" stroke-linecap="butt" stroke-linejoin="miter" style="fill: var(--color1, #000); stroke: var(--color1, #000)" d="M27.935 21.832c0.182-1.907 1.972-1.369 1.972-1.369 0.595 3.481-1.487 5.845-2.989 6.672-0.365 0-0.714-2.128 0.106-2.399s0.729-0.998 0.911-2.904z"></path>
</symbol>
</defs>
</svg>
